<svg width="407" height="383" viewBox="0 0 407 383" fill="none" xmlns="http://www.w3.org/2000/svg">
<circle cx="30" cy="158" r="16" fill="white" stroke="white" stroke-width="4"/>
<circle cx="363.5" cy="10.5" r="8.5" fill="white" stroke="white" stroke-width="4"/>
<circle cx="389" cy="230" r="16" fill="white" stroke="white" stroke-width="4"/>
<circle cx="269" cy="150" r="4" fill="white" stroke="white" stroke-width="4"/>
<path d="M80 209.66C86.8068 205.73 95.1932 205.73 102 209.66L156.808 241.304C163.615 245.234 167.808 252.497 167.808 260.356V323.644C167.808 331.503 163.615 338.766 156.808 342.696L102 374.34C95.1932 378.27 86.8068 378.27 80 374.34L25.1917 342.696C18.3849 338.766 14.1917 331.503 14.1917 323.644V260.356C14.1917 252.497 18.3849 245.234 25.1917 241.304L80 209.66Z" stroke="white" stroke-width="4"/>
<path d="M80.3308 240.104C87.1376 236.174 95.524 236.174 102.331 240.104L131.634 257.022C138.441 260.952 142.634 268.214 142.634 276.074V309.911C142.634 317.77 138.441 325.033 131.634 328.963L102.331 345.881C95.524 349.811 87.1377 349.811 80.3308 345.881L51.0278 328.963C44.2209 325.033 40.0278 317.77 40.0278 309.911V276.074C40.0278 268.214 44.2209 260.952 51.0278 257.022L80.3308 240.104Z" stroke="white" stroke-opacity="0.4" stroke-width="4"/>
<path d="M291.049 79.7942C298.165 75.6856 306.933 75.6856 314.049 79.7942L343.352 96.7123C350.468 100.821 354.852 108.414 354.852 116.631V150.467C354.852 158.684 350.468 166.277 343.352 170.386L314.049 187.304C306.933 191.412 298.165 191.412 291.049 187.304L261.746 170.386C254.63 166.277 250.246 158.684 250.246 150.467V116.631C250.246 108.414 254.63 100.821 261.746 96.7123L291.049 79.7942Z" stroke="white" stroke-opacity="0.4" stroke-width="2"/>
<path d="M15.2217 248.982L90.669 292.001" stroke="white" stroke-opacity="0.16" stroke-width="2"/>
<path d="M166.778 248.982L91.331 292.001" stroke="white" stroke-opacity="0.16" stroke-width="2"/>
<path d="M90.2007 379.18L90.6693 291.67" stroke="white" stroke-opacity="0.16" stroke-width="2"/>
<path d="M292 51.6602C298.807 47.7303 307.193 47.7303 314 51.6602L368.808 83.3038C375.615 87.2337 379.808 94.4965 379.808 102.356V165.644C379.808 173.503 375.615 180.766 368.808 184.696L314 216.34C307.193 220.27 298.807 220.27 292 216.34L237.192 184.696C230.385 180.766 226.192 173.503 226.192 165.644V102.356C226.192 94.4965 230.385 87.2337 237.192 83.3038L292 51.6602Z" stroke="white" stroke-width="4"/>
<path d="M227.222 90.9824L302.669 134.001" stroke="white" stroke-opacity="0.8" stroke-width="2"/>
<path d="M378.778 90.9824L303.331 134.001" stroke="white" stroke-opacity="0.8" stroke-width="2"/>
<path d="M302.201 221.18L302.669 133.67" stroke="white" stroke-opacity="0.8" stroke-width="2"/>
<path d="M132.5 226L268.5 150" stroke="white" stroke-width="2"/>
</svg>
