<svg width="24" height="25" viewBox="0 0 24 25" fill="none" xmlns="http://www.w3.org/2000/svg">
<path fill-rule="evenodd" clip-rule="evenodd" d="M6 6C6 5.44772 6.44772 5 7 5H16C16.5523 5 17 5.44772 17 6C17 6.55229 16.5523 7 16 7H7C6.44772 7 6 6.55229 6 6ZM5 7C5.55229 7 6 7.44772 6 8V17C6 17.5523 5.55229 18 5 18C4.44772 18 4 17.5523 4 17V8C4 7.44772 4.44772 7 5 7ZM6.29289 17.2929L16.2929 7.29289C16.6834 6.90237 17.3166 6.90237 17.7071 7.29289C18.0976 7.68342 18.0976 8.31658 17.7071 8.70711L7.70711 18.7071C7.31658 19.0976 6.68342 19.0976 6.29289 18.7071C5.90237 18.3166 5.90237 17.6834 6.29289 17.2929Z" fill="white"/>
<path fill-rule="evenodd" clip-rule="evenodd" d="M18 5C17.4477 5 17 5.44772 17 6C17 6.55229 17.4477 7 18 7C18.5523 7 19 6.55229 19 6C19 5.44772 18.5523 5 18 5ZM21 6C21 4.34315 19.6569 3 18 3C16.3431 3 15 4.34315 15 6C15 7.65685 16.3431 9 18 9C19.6569 9 21 7.65685 21 6ZM5 5C4.44772 5 4 5.44772 4 6C4 6.55228 4.44772 7 5 7C5.55228 7 6 6.55229 6 6C6 5.44772 5.55228 5 5 5ZM8 6C8 4.34315 6.65686 3 5 3C3.34315 3 2 4.34315 2 6C2 7.65685 3.34315 9 5 9C6.65686 9 8 7.65685 8 6ZM4 19C4 18.4477 4.44772 18 5 18C5.55228 18 6 18.4477 6 19C6 19.5523 5.55228 20 5 20C4.44772 20 4 19.5523 4 19ZM5 16C6.65685 16 8 17.3431 8 19C8 20.6569 6.65685 22 5 22C3.34315 22 2 20.6569 2 19C2 17.3431 3.34315 16 5 16Z" fill="white"/>
<path d="M22 12C22 12.5523 21.5523 13 21 13C20.4477 13 20 12.5523 20 12C20 11.4477 20.4477 11 21 11C21.5523 11 22 11.4477 22 12Z" fill="white"/>
<path d="M17.3474 15.5133C17.5133 14.8289 18.4867 14.8289 18.6526 15.5133L19.1092 17.3964C19.1685 17.6407 19.3593 17.8315 19.6036 17.8908L21.4867 18.3474C22.1711 18.5133 22.1711 19.4867 21.4867 19.6526L19.6036 20.1092C19.3593 20.1685 19.1685 20.3593 19.1092 20.6036L18.6526 22.4867C18.4867 23.1711 17.5133 23.1711 17.3474 22.4867L16.8908 20.6036C16.8315 20.3593 16.6407 20.1685 16.3964 20.1092L14.5133 19.6526C13.8289 19.4867 13.8289 18.5133 14.5133 18.3474L16.3964 17.8908C16.6407 17.8315 16.8315 17.6407 16.8908 17.3964L17.3474 15.5133Z" fill="white"/>
<path fill-rule="evenodd" clip-rule="evenodd" d="M18 16.2415L17.6739 17.5863C17.5436 18.1238 17.1238 18.5436 16.5863 18.6739L15.2415 19L16.5863 19.3261C17.1238 19.4565 17.5436 19.8762 17.6739 20.4137L18 21.7585L18.3261 20.4137C18.4565 19.8762 18.8762 19.4565 19.4137 19.3261L20.7585 19L19.4137 18.6739C18.8762 18.5436 18.4565 18.1238 18.3261 17.5863L18 16.2415ZM18.6526 15.5133C18.4867 14.8289 17.5133 14.8289 17.3474 15.5133L16.8908 17.3964C16.8315 17.6407 16.6407 17.8315 16.3964 17.8908L14.5133 18.3474C13.8289 18.5133 13.8289 19.4867 14.5133 19.6526L16.3964 20.1092C16.6407 20.1685 16.8315 20.3593 16.8908 20.6036L17.3474 22.4867C17.5133 23.1711 18.4867 23.1711 18.6526 22.4867L19.1092 20.6036C19.1685 20.3593 19.3593 20.1685 19.6036 20.1092L21.4867 19.6526C22.1711 19.4867 22.1711 18.5133 21.4867 18.3474L19.6036 17.8908C19.3593 17.8315 19.1685 17.6407 19.1092 17.3964L18.6526 15.5133Z" fill="white"/>
<path d="M12 22C12 22.5523 11.5523 23 11 23C10.4477 23 10 22.5523 10 22C10 21.4477 10.4477 21 11 21C11.5523 21 12 21.4477 12 22Z" fill="white"/>
</svg>
