<svg width="24" height="24" viewBox="0 0 24 24" fill="none" xmlns="http://www.w3.org/2000/svg">
<path d="M6 22.9999C5.44771 22.9999 5 22.5522 5 21.9999C5 21.4477 5.44771 20.9999 6 20.9999C6.55228 20.9999 7 21.4477 7 21.9999C7 22.5522 6.55228 22.9999 6 22.9999Z" fill="white"/>
<path d="M18 2.99994C17.4477 2.99994 17 2.55222 17 1.99994C17 1.44765 17.4477 0.999939 18 0.999939C18.5523 0.999939 19 1.44765 19 1.99994C19 2.55222 18.5523 2.99994 18 2.99994Z" fill="white"/>
<path d="M22 6.99994C21.4477 6.99994 21 6.55222 21 5.99994C21 5.44765 21.4477 4.99994 22 4.99994C22.5523 4.99994 23 5.44765 23 5.99994C23 6.55222 22.5523 6.99994 22 6.99994Z" fill="white"/>
<path d="M10.6948 5.0265C11.0267 3.65775 12.9733 3.65775 13.3052 5.0265L14.2185 8.79271C14.337 9.28139 14.7185 9.66295 15.2072 9.78145L18.9734 10.6947C20.3422 11.0266 20.3422 12.9733 18.9734 13.3052L15.2072 14.2184C14.7185 14.3369 14.337 14.7185 14.2185 15.2072L13.3052 18.9734C12.9733 20.3421 11.0267 20.3421 10.6948 18.9734L9.78151 15.2072C9.66301 14.7185 9.28146 14.3369 8.79277 14.2184L5.02656 13.3052C3.65781 12.9733 3.65781 11.0266 5.02656 10.6947L8.79277 9.78145C9.28146 9.66295 9.66301 9.28139 9.78151 8.79271L10.6948 5.0265Z" fill="white"/>
<path fill-rule="evenodd" clip-rule="evenodd" d="M22.3147 14.9953C22.7804 15.1691 23.017 15.6875 22.8432 16.1532C21.7173 19.1696 19.3801 21.5926 16.4228 22.8302C15.9643 23.0221 15.4371 22.8059 15.2452 22.3474C15.0533 21.8889 15.2694 21.3616 15.728 21.1697C18.2274 20.1237 20.2052 18.0734 21.1568 15.5238C21.3306 15.0581 21.849 14.8215 22.3147 14.9953Z" fill="white"/>
<path fill-rule="evenodd" clip-rule="evenodd" d="M9.02077 1.68458C9.19494 2.15012 8.95874 2.66871 8.4932 2.84288C5.92955 3.802 3.87073 5.80284 2.83251 8.33058C2.64367 8.79037 2.11785 9.01 1.65806 8.82116C1.19828 8.63231 0.97864 8.10649 1.16749 7.64671C2.39534 4.65724 4.82798 2.29227 7.86247 1.157C8.32801 0.98283 8.8466 1.21903 9.02077 1.68458Z" fill="white"/>
<path d="M2 18.9999C1.44772 18.9999 1 18.5522 1 17.9999C1 17.4477 1.44772 16.9999 2 16.9999C2.55228 16.9999 3 17.4477 3 17.9999C3 18.5522 2.55228 18.9999 2 18.9999Z" fill="white"/>
</svg>
