<svg width="25" height="24" viewBox="0 0 25 24" fill="none" xmlns="http://www.w3.org/2000/svg">
<path d="M19.9999 21.9999C19.9999 22.5522 19.5522 22.9999 18.9999 22.9999C18.4476 22.9999 17.9999 22.5522 17.9999 21.9999C17.9999 21.4477 18.4476 20.9999 18.9999 20.9999C19.5522 20.9999 19.9999 21.4477 19.9999 21.9999Z" fill="white"/>
<path d="M23.9999 17.9999C23.9999 18.5522 23.5522 18.9999 22.9999 18.9999C22.4476 18.9999 21.9999 18.5522 21.9999 17.9999C21.9999 17.4477 22.4476 16.9999 22.9999 16.9999C23.5522 16.9999 23.9999 17.4477 23.9999 17.9999Z" fill="white"/>
<path fill-rule="evenodd" clip-rule="evenodd" d="M10.0045 22.3146C9.83069 22.7803 9.31229 23.0169 8.84661 22.8431C5.83018 21.7173 3.4072 19.3801 2.16961 16.4228C1.97773 15.9643 2.19388 15.437 2.6524 15.2451C3.11093 15.0532 3.63819 15.2694 3.83008 15.7279C4.87608 18.2274 6.92642 20.2051 9.47603 21.1568C9.9417 21.3306 10.1783 21.849 10.0045 22.3146Z" fill="white"/>
<path fill-rule="evenodd" clip-rule="evenodd" d="M23.3152 9.02071C22.8497 9.19488 22.3311 8.95868 22.1569 8.49313C21.1978 5.92948 19.1969 3.87066 16.6692 2.83245C16.2094 2.64361 15.9898 2.11779 16.1786 1.658C16.3675 1.19822 16.8933 0.978577 17.3531 1.16742C20.3425 2.39528 22.7075 4.82792 23.8428 7.86241C24.017 8.32795 23.7807 8.84654 23.3152 9.02071Z" fill="white"/>
<path d="M4.71041 1.58491C4.83488 1.07163 5.56488 1.07163 5.68934 1.58491L6.03181 2.99724C6.07625 3.18049 6.21933 3.32358 6.40259 3.36801L7.81492 3.71048C8.3282 3.83495 8.3282 4.56495 7.81492 4.68941L6.40259 5.03188C6.37968 5.03744 6.3574 5.04453 6.33587 5.05306C6.1851 5.11272 6.07069 5.24231 6.03181 5.40266L5.68934 6.81499C5.68156 6.84707 5.67142 6.87714 5.65921 6.90521C5.47599 7.32626 4.8271 7.29619 4.71041 6.81499L4.36794 5.40266C4.36517 5.39121 4.362 5.37991 4.35847 5.36878C4.30546 5.2019 4.16897 5.07354 3.99717 5.03188L2.58484 4.68941C2.55276 4.68163 2.52268 4.67149 2.49461 4.65928C2.07356 4.47606 2.10364 3.82717 2.58484 3.71048L3.99717 3.36801C4.18042 3.32358 4.32351 3.18049 4.36794 2.99724L4.71041 1.58491Z" fill="white"/>
<path d="M9.4458 7.63906C9.4458 7.28608 9.73194 6.99994 10.0849 6.99994H12.1762C12.2821 6.99994 12.4082 7.00498 12.5544 7.01507C12.7006 7.02011 12.8418 7.03524 12.978 7.06045C13.5679 7.15121 14.0621 7.35542 14.4604 7.67309C14.8638 7.98572 15.1663 8.37902 15.368 8.853C15.5697 9.32698 15.6706 9.85391 15.6706 10.4338C15.6706 11.2506 15.4714 11.954 15.0731 12.544C14.6798 13.1289 14.0923 13.5273 13.3108 13.739C13.1242 13.7895 12.9427 13.8248 12.7662 13.8449C12.5897 13.8601 12.3855 13.8676 12.1535 13.8676H10.0849C9.73194 13.8676 9.4458 13.5815 9.4458 13.2285C9.4458 12.8755 9.73194 12.5894 10.0849 12.5894H12.1309C12.2267 12.5894 12.3351 12.5843 12.4561 12.5743C12.5821 12.5642 12.7006 12.5465 12.8116 12.5213C13.1595 12.4406 13.4419 12.2944 13.6587 12.0826C13.8805 11.8658 14.0419 11.6137 14.1427 11.3263C14.2436 11.0338 14.294 10.7363 14.294 10.4338C14.294 10.1312 14.2436 9.83374 14.1427 9.54128C14.0419 9.24883 13.8805 8.99671 13.6587 8.78493C13.4419 8.56811 13.1595 8.42188 12.8116 8.34625C12.7006 8.31599 12.5821 8.29834 12.4561 8.2933C12.3351 8.28322 12.2267 8.27817 12.1309 8.27817H10.0849C9.73194 8.27817 9.4458 7.99203 9.4458 7.63906ZM10.0168 10.9708C9.71818 10.9708 9.47605 10.7287 9.47605 10.43C9.47605 10.1313 9.71818 9.8892 10.0168 9.8892H16.2643C16.563 9.8892 16.8051 10.1313 16.8051 10.43C16.8051 10.7287 16.563 10.9708 16.2643 10.9708H10.0168ZM12.5809 8.08152C12.2822 8.08152 12.0401 7.8394 12.0401 7.54073C12.0401 7.24206 12.2822 6.99994 12.5809 6.99994H16.2341C16.5327 6.99994 16.7749 7.24206 16.7749 7.54073C16.7749 7.8394 16.5327 8.08152 16.2341 8.08152H12.5809Z" fill="white"/>
<rect x="9.98926" y="12.4413" width="8.19125" height="1.48836" rx="0.744179" transform="rotate(41.6688 9.98926 12.4413)" fill="white"/>
</svg>
