<svg width="182" height="94" viewBox="0 0 182 94" fill="none" xmlns="http://www.w3.org/2000/svg">
<g clip-path="url(#clip0_3643_1149)">
<path fill-rule="evenodd" clip-rule="evenodd" d="M173.368 20.6749C176.077 19.1628 178.235 16.6513 179.236 13.457L181.922 4.88695C182.07 4.41364 181.807 3.9097 181.333 3.76137L175.549 1.94851C172.357 0.948411 169.085 1.03351 166.131 1.99582C168.677 3.42809 170.944 5.77273 172.449 8.81085C174.445 12.8402 174.66 17.1964 173.368 20.6749Z" fill="url(#paint0_linear_3643_1149)"/>
<path fill-rule="evenodd" clip-rule="evenodd" d="M168.968 22.6186C165.849 23.6743 162.371 23.748 159.013 22.6034L153.488 20.7198C152.901 20.5198 152.587 19.8819 152.788 19.295L155.613 11.0069C156.664 7.92213 158.796 5.5116 161.442 4.05351C160.176 7.57437 160.449 11.9474 162.525 15.9497C164.081 18.9491 166.39 21.2407 168.968 22.6186Z" fill="url(#paint1_linear_3643_1149)"/>
</g>
<path d="M182 81.0931C182 85.5118 180.895 88.6818 178.686 90.603C176.524 92.5722 173.403 93.5569 169.32 93.5569H164.853V84.9835H167.735C169.272 84.9835 170.353 84.6713 170.977 84.0469C171.601 83.4706 171.914 82.51 171.914 81.1651V34.624H182V81.0931Z" fill="white"/>
<path d="M161.943 34.624V74.537H151.857V34.624H161.943Z" fill="white"/>
<path d="M126.35 34.0449C131.105 34.0449 134.947 35.5579 137.877 38.5838C140.807 41.5616 142.272 45.7402 142.272 51.1196V74.5342H132.185V52.4884C132.185 49.3185 131.393 46.893 129.808 45.2119C128.223 43.4828 126.062 42.6183 123.324 42.6183C120.538 42.6183 118.329 43.4828 116.696 45.2119C115.111 46.893 114.318 49.3185 114.318 52.4884V74.5342H104.232V34.6213H114.318V39.5924C115.663 37.8633 117.368 36.5185 119.433 35.5579C121.547 34.5492 123.852 34.0449 126.35 34.0449Z" fill="white"/>
<path d="M52.8105 54.4374C52.8105 50.4028 53.603 46.8246 55.188 43.7026C56.8211 40.5807 59.0064 38.1792 61.7441 36.4981C64.5299 34.8171 67.6278 33.9766 71.0379 33.9766C74.0158 33.9766 76.6094 34.5769 78.8188 35.7777C81.0762 36.9784 82.8773 38.4914 84.2222 40.3165V34.625H94.3805V74.5379H84.2222V68.7023C82.9254 70.5754 81.1243 72.1364 78.8188 73.3852C76.5614 74.586 73.9438 75.1863 70.9659 75.1863C67.6038 75.1863 64.5299 74.3218 61.7441 72.5927C59.0064 70.8636 56.8211 68.4381 55.188 65.3162C53.603 62.1462 52.8105 58.5199 52.8105 54.4374ZM84.2222 54.5814C84.2222 52.1319 83.7419 50.0426 82.7813 48.3135C81.8207 46.5364 80.5239 45.1916 78.8909 44.279C77.2578 43.3184 75.5047 42.8381 73.6316 42.8381C71.7584 42.8381 70.0293 43.2944 68.4443 44.207C66.8593 45.1195 65.5625 46.4644 64.5539 48.2415C63.5933 49.9706 63.113 52.0359 63.113 54.4374C63.113 56.8389 63.5933 58.9522 64.5539 60.7773C65.5625 62.5544 66.8593 63.9233 68.4443 64.8839C70.0773 65.8445 71.8064 66.3248 73.6316 66.3248C75.5047 66.3248 77.2578 65.8685 78.8909 64.9559C80.5239 63.9953 81.8207 62.6505 82.7813 60.9214C83.7419 59.1443 84.2222 57.031 84.2222 54.5814Z" fill="white"/>
<path d="M49.3582 24.249L30.9146 74.5365H18.667L0.22345 24.249H11.0302L24.8629 64.234L38.6235 24.249H49.3582Z" fill="white"/>
<defs>
<linearGradient id="paint0_linear_3643_1149" x1="166.985" y1="1.48297" x2="173.941" y2="20.1187" gradientUnits="userSpaceOnUse">
<stop stop-color="#FAB91D"/>
<stop offset="0.5" stop-color="#7C9D82"/>
<stop offset="1" stop-color="#00C0ED"/>
</linearGradient>
<linearGradient id="paint1_linear_3643_1149" x1="168.072" y1="22.1219" x2="158.521" y2="5.84681" gradientUnits="userSpaceOnUse">
<stop offset="0.0310004" stop-color="#001D81"/>
<stop offset="1" stop-color="#FA6D9B"/>
</linearGradient>
<clipPath id="clip0_3643_1149">
<rect width="29.4128" height="24.2487" fill="white" transform="translate(152.587)"/>
</clipPath>
</defs>
</svg>
