<svg width="96" height="50" viewBox="0 0 96 50" fill="none" xmlns="http://www.w3.org/2000/svg">
<g clip-path="url(#clip0_44_378)">
<mask id="mask0_44_378" style="mask-type:luminance" maskUnits="userSpaceOnUse" x="80" y="0" width="16" height="13">
<path d="M95.9677 0H80.4585V12.7862H95.9677V0Z" fill="white"/>
</mask>
<g mask="url(#mask0_44_378)">
<path fill-rule="evenodd" clip-rule="evenodd" d="M91.4157 10.9007C92.844 10.1033 93.9819 8.77907 94.5101 7.09475L95.9262 2.57582C96.0044 2.32624 95.8657 2.06052 95.6157 1.98231L92.5657 1.0264C90.8827 0.499038 89.1577 0.543924 87.5996 1.05137C88.9415 1.80659 90.1375 3.04294 90.9311 4.64497C91.9835 6.76957 92.0972 9.06649 91.4157 10.9007Z" fill="url(#paint0_linear_44_378)"/>
<path fill-rule="evenodd" clip-rule="evenodd" d="M89.0958 11.9258C87.4515 12.4824 85.6176 12.5213 83.8466 11.9178L80.9337 10.9246C80.6239 10.8191 80.4586 10.4828 80.564 10.1733L82.0539 5.80302C82.6079 4.17649 83.7321 2.90544 85.1273 2.1366C84.4595 3.99312 84.6039 6.299 85.6982 8.40937C86.5192 9.9909 87.7369 11.1993 89.0958 11.9258Z" fill="url(#paint1_linear_44_378)"/>
</g>
<path d="M95.9679 42.7588C95.9679 45.0888 95.3856 46.7603 94.2203 47.7734C93.0808 48.8117 91.4348 49.3309 89.2816 49.3309H86.9268V44.8102H88.4461C89.2566 44.8102 89.8268 44.6456 90.1558 44.3163C90.4848 44.0124 90.6493 43.5059 90.6493 42.7967V18.2559H95.9679V42.7588Z" fill="white"/>
<path d="M85.3919 18.2559V39.3018H80.0737V18.2559H85.3919Z" fill="white"/>
<path d="M66.6235 17.9512C69.1308 17.9512 71.1569 18.7489 72.7017 20.3445C74.2467 21.9146 75.0191 24.118 75.0191 26.9546V39.3009H69.7006V27.6763C69.7006 26.0048 69.2828 24.7258 68.447 23.8395C67.6113 22.9277 66.4716 22.4718 65.028 22.4718C63.5591 22.4718 62.3941 22.9277 61.533 23.8395C60.6972 24.7258 60.2793 26.0048 60.2793 27.6763V39.3009H54.9609V18.255H60.2793V20.8763C60.9885 19.9646 61.8876 19.2554 62.9766 18.7489C64.0909 18.2171 65.3066 17.9512 66.6235 17.9512Z" fill="white"/>
<path d="M27.8467 28.7049C27.8467 26.5775 28.2645 24.6908 29.1003 23.0446C29.9614 21.3984 31.1137 20.1321 32.5573 19.2457C34.0262 18.3592 35.6597 17.916 37.4579 17.916C39.028 17.916 40.3957 18.2326 41.5607 18.8658C42.751 19.4989 43.7007 20.2967 44.4099 21.2591V18.258H49.7664V39.3038H44.4099V36.2267C43.726 37.2145 42.7764 38.0375 41.5607 38.696C40.3704 39.3292 38.9901 39.6458 37.4199 39.6458C35.6471 39.6458 34.0262 39.1899 32.5573 38.2782C31.1137 37.3664 29.9614 36.0875 29.1003 34.4413C28.2645 32.7697 27.8467 30.8576 27.8467 28.7049ZM44.4099 28.7809C44.4099 27.4892 44.1566 26.3876 43.6501 25.4759C43.1435 24.5388 42.4597 23.8296 41.5987 23.3484C40.7376 22.842 39.8132 22.5887 38.8255 22.5887C37.8378 22.5887 36.926 22.8293 36.0903 23.3105C35.2545 23.7917 34.5707 24.5008 34.0389 25.4379C33.5323 26.3496 33.2791 27.4386 33.2791 28.7049C33.2791 29.9713 33.5323 31.0855 34.0389 32.048C34.5707 32.985 35.2545 33.7068 36.0903 34.2134C36.9514 34.7199 37.8631 34.9731 38.8255 34.9731C39.8132 34.9731 40.7376 34.7325 41.5987 34.2513C42.4597 33.7448 43.1435 33.0357 43.6501 32.1239C44.1566 31.1869 44.4099 30.0725 44.4099 28.7809Z" fill="white"/>
<path d="M26.0267 12.7852L16.3015 39.3015H9.84337L0.118164 12.7852H5.81652L13.1104 33.8691L20.3663 12.7852H26.0267Z" fill="white"/>
</g>
<defs>
<linearGradient id="paint0_linear_44_378" x1="88.0496" y1="0.780926" x2="91.7182" y2="10.6075" gradientUnits="userSpaceOnUse">
<stop stop-color="#FAB91D"/>
<stop offset="0.5" stop-color="#7C9D82"/>
<stop offset="1" stop-color="#00C0ED"/>
</linearGradient>
<linearGradient id="paint1_linear_44_378" x1="88.6232" y1="11.6639" x2="83.5878" y2="3.08214" gradientUnits="userSpaceOnUse">
<stop offset="0.0310004" stop-color="#001D81"/>
<stop offset="1" stop-color="#FA6D9B"/>
</linearGradient>
<clipPath id="clip0_44_378">
<rect width="95.9677" height="50" fill="white"/>
</clipPath>
</defs>
</svg>
